<svg xmlns="http://www.w3.org/2000/svg" xmlns:xlink="http://www.w3.org/1999/xlink" width="100%" height="100%" zoomAndPan="magnify" viewBox="0 0 198.75 74.999997" preserveAspectRatio="xMidYMid meet" version="1.0"><defs><g/><clipPath id="40d4e800ff"><path d="M 0 0.046875 L 198.5 0.046875 L 198.5 74.953125 L 0 74.953125 Z M 0 0.046875 " clip-rule="nonzero"/></clipPath></defs><g clip-path="url(#40d4e800ff)"><path fill="#ffffff" d="M 0 0.046875 L 198.5 0.046875 L 198.5 74.953125 L 0 74.953125 Z M 0 0.046875 " fill-opacity="1" fill-rule="nonzero"/><path fill="#ffffff" d="M 0 0.046875 L 198.5 0.046875 L 198.5 74.953125 L 0 74.953125 Z M 0 0.046875 " fill-opacity="1" fill-rule="nonzero"/></g><g fill="#000000" fill-opacity="1"><g transform="translate(9.92101, 29.963434)"><g><path d="M 8.203125 -1.78125 L 6.765625 -0.90625 L 5.546875 -1.1875 L 0.65625 -7.4375 L 0.203125 -8.53125 L 0.65625 -9.640625 L 5.1875 -16.25 L 6.40625 -16.53125 L 7.84375 -15.65625 L 3.5 -8.53125 Z M 8.203125 -1.78125 "/></g></g></g><g fill="#000000" fill-opacity="1"><g transform="translate(18.820205, 29.963434)"><g><path d="M 9.25 -0.46875 L 9.25 -10.671875 L 7.796875 -7.953125 L 5.53125 -7.953125 L 4.15625 -10.625 L 4.15625 -0.5 C 4.15625 -0.226562 4.148438 -0.046875 4.140625 0.046875 C 4.078125 0.253906 3.785156 0.359375 3.265625 0.359375 C 1.765625 0.359375 1.015625 0.0820312 1.015625 -0.46875 L 1.015625 -16.40625 C 1.015625 -16.96875 1.53125 -17.25 2.5625 -17.25 C 3.59375 -17.25 4.210938 -16.972656 4.421875 -16.421875 L 6.703125 -10.625 L 9.078125 -16.453125 C 9.191406 -16.773438 9.335938 -16.988281 9.515625 -17.09375 C 9.691406 -17.195312 9.992188 -17.25 10.421875 -17.25 C 11.503906 -17.25 12.050781 -16.957031 12.0625 -16.375 L 12.421875 -9.6875 L 12.421875 -0.625 C 12.421875 -0.175781 12.378906 0.0976562 12.296875 0.203125 C 12.210938 0.304688 11.941406 0.359375 11.484375 0.359375 C 11.035156 0.359375 10.664062 0.34375 10.375 0.3125 C 10.09375 0.28125 9.832031 0.203125 9.59375 0.078125 C 9.363281 -0.046875 9.25 -0.226562 9.25 -0.46875 Z M 9.25 -0.46875 "/></g></g></g><g fill="#000000" fill-opacity="1"><g transform="translate(32.23642, 29.963434)"><g><path d="M 1.328125 -2.71875 L 2.140625 -2.71875 L 2.140625 -14.203125 L 1.453125 -14.203125 C 1.160156 -14.210938 0.960938 -14.3125 0.859375 -14.5 C 0.753906 -14.707031 0.703125 -15.085938 0.703125 -15.640625 C 0.703125 -16.472656 0.945312 -16.890625 1.4375 -16.890625 L 5.421875 -16.890625 C 6.078125 -16.890625 6.40625 -16.660156 6.40625 -16.203125 C 6.40625 -14.867188 6.144531 -14.203125 5.625 -14.203125 L 5.0625 -14.203125 L 5.28125 -9.703125 L 5.296875 -2.71875 L 5.984375 -2.71875 C 6.503906 -2.707031 6.765625 -2.46875 6.765625 -2 C 6.734375 -0.664062 6.363281 0 5.65625 0 L 1.421875 0 C 1.148438 -0.0078125 0.960938 -0.109375 0.859375 -0.296875 C 0.753906 -0.503906 0.703125 -0.890625 0.703125 -1.453125 C 0.703125 -2.296875 0.910156 -2.71875 1.328125 -2.71875 Z M 1.328125 -2.71875 "/></g></g></g><g fill="#000000" fill-opacity="1"><g transform="translate(39.540056, 29.963434)"><g><path d="M 1.015625 -0.546875 L 1.015625 -16.890625 C 2.535156 -17.128906 3.859375 -17.25 4.984375 -17.25 C 7.066406 -17.25 8.503906 -16.859375 9.296875 -16.078125 C 10.097656 -15.304688 10.5 -14.019531 10.5 -12.21875 C 10.5 -9.707031 9.789062 -8.03125 8.375 -7.1875 L 11.21875 -0.78125 C 11.375 -0.40625 11.453125 -0.160156 11.453125 -0.046875 C 11.453125 0.0546875 11.441406 0.125 11.421875 0.15625 C 11.359375 0.289062 11.101562 0.359375 10.65625 0.359375 C 9.195312 0.359375 8.34375 0.0703125 8.09375 -0.5 L 5.53125 -6.421875 C 5.15625 -6.390625 4.59375 -6.375 3.84375 -6.375 L 3.84375 -0.578125 C 3.84375 -0.160156 3.800781 0.0976562 3.71875 0.203125 C 3.632812 0.304688 3.375 0.359375 2.9375 0.359375 C 1.65625 0.359375 1.015625 0.0546875 1.015625 -0.546875 Z M 4.203125 -9.453125 C 5.398438 -9.453125 6.207031 -9.617188 6.625 -9.953125 C 7.039062 -10.296875 7.25 -11.0625 7.25 -12.25 C 7.25 -12.96875 7.132812 -13.535156 6.90625 -13.953125 C 6.675781 -14.367188 6.421875 -14.578125 6.140625 -14.578125 C 5.066406 -14.578125 4.414062 -14.554688 4.1875 -14.515625 C 3.957031 -14.472656 3.84375 -14.320312 3.84375 -14.0625 L 3.84375 -9.796875 C 3.84375 -9.597656 3.878906 -9.488281 3.953125 -9.46875 C 4.023438 -9.457031 4.109375 -9.453125 4.203125 -9.453125 Z M 4.203125 -9.453125 "/></g></g></g><g fill="#000000" fill-opacity="1"><g transform="translate(51.495547, 29.963434)"><g><path d="M 1.328125 -2.71875 L 2.140625 -2.71875 L 2.140625 -14.203125 L 1.453125 -14.203125 C 1.160156 -14.210938 0.960938 -14.3125 0.859375 -14.5 C 0.753906 -14.707031 0.703125 -15.085938 0.703125 -15.640625 C 0.703125 -16.472656 0.945312 -16.890625 1.4375 -16.890625 L 5.421875 -16.890625 C 6.078125 -16.890625 6.40625 -16.660156 6.40625 -16.203125 C 6.40625 -14.867188 6.144531 -14.203125 5.625 -14.203125 L 5.0625 -14.203125 L 5.28125 -9.703125 L 5.296875 -2.71875 L 5.984375 -2.71875 C 6.503906 -2.707031 6.765625 -2.46875 6.765625 -2 C 6.734375 -0.664062 6.363281 0 5.65625 0 L 1.421875 0 C 1.148438 -0.0078125 0.960938 -0.109375 0.859375 -0.296875 C 0.753906 -0.503906 0.703125 -0.890625 0.703125 -1.453125 C 0.703125 -2.296875 0.910156 -2.71875 1.328125 -2.71875 Z M 1.328125 -2.71875 "/></g></g></g><g fill="#000000" fill-opacity="1"><g transform="translate(58.799183, 29.963434)"><g><path d="M 6.703125 -17.28125 C 7.734375 -17.28125 8.289062 -17.046875 8.375 -16.578125 L 9.90625 -9.6875 L 11.453125 -0.5 C 11.484375 -0.34375 11.5 -0.203125 11.5 -0.078125 C 11.5 0.046875 11.460938 0.148438 11.390625 0.234375 C 11.316406 0.316406 11.0625 0.359375 10.625 0.359375 C 9.289062 0.359375 8.582031 0.0703125 8.5 -0.5 L 7.703125 -5.125 L 4.5625 -5.125 L 3.859375 -0.46875 C 3.816406 -0.15625 3.757812 0.0507812 3.6875 0.15625 C 3.625 0.257812 3.53125 0.316406 3.40625 0.328125 C 3.289062 0.347656 3.097656 0.359375 2.828125 0.359375 L 2.203125 0.359375 C 1.679688 0.359375 1.351562 0.328125 1.21875 0.265625 C 0.882812 0.148438 0.695312 0.015625 0.65625 -0.140625 C 0.632812 -0.210938 0.625 -0.273438 0.625 -0.328125 C 0.625 -0.390625 0.78125 -1.378906 1.09375 -3.296875 C 1.414062 -5.210938 1.800781 -7.5 2.25 -10.15625 C 2.707031 -12.8125 3.007812 -14.550781 3.15625 -15.375 C 3.300781 -16.195312 3.378906 -16.660156 3.390625 -16.765625 C 3.453125 -17.109375 4.554688 -17.28125 6.703125 -17.28125 Z M 6.015625 -14.328125 L 4.984375 -7.84375 L 7.21875 -7.84375 Z M 6.015625 -14.328125 "/></g></g></g><g fill="#000000" fill-opacity="1"><g transform="translate(70.911977, 29.963434)"><g><path d="M 9.25 -0.46875 L 9.25 -10.671875 L 7.796875 -7.953125 L 5.53125 -7.953125 L 4.15625 -10.625 L 4.15625 -0.5 C 4.15625 -0.226562 4.148438 -0.046875 4.140625 0.046875 C 4.078125 0.253906 3.785156 0.359375 3.265625 0.359375 C 1.765625 0.359375 1.015625 0.0820312 1.015625 -0.46875 L 1.015625 -16.40625 C 1.015625 -16.96875 1.53125 -17.25 2.5625 -17.25 C 3.59375 -17.25 4.210938 -16.972656 4.421875 -16.421875 L 6.703125 -10.625 L 9.078125 -16.453125 C 9.191406 -16.773438 9.335938 -16.988281 9.515625 -17.09375 C 9.691406 -17.195312 9.992188 -17.25 10.421875 -17.25 C 11.503906 -17.25 12.050781 -16.957031 12.0625 -16.375 L 12.421875 -9.6875 L 12.421875 -0.625 C 12.421875 -0.175781 12.378906 0.0976562 12.296875 0.203125 C 12.210938 0.304688 11.941406 0.359375 11.484375 0.359375 C 11.035156 0.359375 10.664062 0.34375 10.375 0.3125 C 10.09375 0.28125 9.832031 0.203125 9.59375 0.078125 C 9.363281 -0.046875 9.25 -0.226562 9.25 -0.46875 Z M 9.25 -0.46875 "/></g></g></g><g fill="#000000" fill-opacity="1"><g transform="translate(84.328192, 29.963434)"><g/></g></g><g fill="#000000" fill-opacity="1"><g transform="translate(90.305937, 29.963434)"><g><path d="M 8.5 -10.21875 C 9.09375 -10.21875 9.390625 -9.953125 9.390625 -9.421875 C 9.390625 -8.679688 9.34375 -8.175781 9.25 -7.90625 C 9.164062 -7.632812 8.9375 -7.5 8.5625 -7.5 L 4.15625 -7.5 L 4.15625 -2.71875 L 9.34375 -2.71875 C 9.707031 -2.707031 9.957031 -2.632812 10.09375 -2.5 C 10.226562 -2.375 10.296875 -2.1875 10.296875 -1.9375 C 10.296875 -1.195312 10.226562 -0.6875 10.09375 -0.40625 C 9.957031 -0.132812 9.6875 0 9.28125 0 L 1.375 0 L 1.015625 -0.359375 L 1.015625 -16.890625 L 8.984375 -16.890625 C 9.628906 -16.878906 9.953125 -16.640625 9.953125 -16.171875 C 9.941406 -15.773438 9.921875 -15.457031 9.890625 -15.21875 C 9.859375 -14.988281 9.765625 -14.757812 9.609375 -14.53125 C 9.453125 -14.3125 9.222656 -14.203125 8.921875 -14.203125 L 3.90625 -14.203125 L 4.15625 -10.21875 Z M 8.5 -10.21875 "/></g></g></g><g fill="#000000" fill-opacity="1"><g transform="translate(101.160263, 29.963434)"><g><path d="M 1.015625 -16.421875 C 1.015625 -16.753906 1.09375 -16.972656 1.25 -17.078125 C 1.40625 -17.191406 1.707031 -17.25 2.15625 -17.25 C 3.238281 -17.25 3.785156 -16.984375 3.796875 -16.453125 L 4.140625 -9.703125 L 4.15625 -2.71875 L 8.515625 -2.71875 C 9.242188 -2.71875 9.609375 -2.445312 9.609375 -1.90625 C 9.609375 -0.9375 9.46875 -0.351562 9.1875 -0.15625 C 9.039062 -0.0507812 8.847656 0 8.609375 0 L 1.375 0 L 1.015625 -0.359375 Z M 1.015625 -16.421875 "/></g></g></g><g fill="#000000" fill-opacity="1"><g transform="translate(110.935895, 29.963434)"><g><path d="M 1.328125 -2.71875 L 2.140625 -2.71875 L 2.140625 -14.203125 L 1.453125 -14.203125 C 1.160156 -14.210938 0.960938 -14.3125 0.859375 -14.5 C 0.753906 -14.707031 0.703125 -15.085938 0.703125 -15.640625 C 0.703125 -16.472656 0.945312 -16.890625 1.4375 -16.890625 L 5.421875 -16.890625 C 6.078125 -16.890625 6.40625 -16.660156 6.40625 -16.203125 C 6.40625 -14.867188 6.144531 -14.203125 5.625 -14.203125 L 5.0625 -14.203125 L 5.28125 -9.703125 L 5.296875 -2.71875 L 5.984375 -2.71875 C 6.503906 -2.707031 6.765625 -2.46875 6.765625 -2 C 6.734375 -0.664062 6.363281 0 5.65625 0 L 1.421875 0 C 1.148438 -0.0078125 0.960938 -0.109375 0.859375 -0.296875 C 0.753906 -0.503906 0.703125 -0.890625 0.703125 -1.453125 C 0.703125 -2.296875 0.910156 -2.71875 1.328125 -2.71875 Z M 1.328125 -2.71875 "/></g></g></g><g fill="#000000" fill-opacity="1"><g transform="translate(118.239531, 29.963434)"><g><path d="M 10.109375 0 L 1.34375 0 L 0.984375 -0.359375 L 0.984375 -2.734375 L 7.375 -14.203125 L 1.625 -14.203125 C 1.226562 -14.210938 0.972656 -14.300781 0.859375 -14.46875 C 0.734375 -14.675781 0.671875 -15.023438 0.671875 -15.515625 C 0.671875 -16.003906 0.722656 -16.351562 0.828125 -16.5625 C 0.929688 -16.78125 1.15625 -16.890625 1.5 -16.890625 L 10.53125 -16.890625 L 10.890625 -16.53125 L 10.890625 -14.5625 L 4.671875 -2.71875 L 10 -2.71875 C 10.488281 -2.707031 10.816406 -2.644531 10.984375 -2.53125 C 11.160156 -2.414062 11.25 -2.238281 11.25 -2 C 11.226562 -0.664062 10.847656 0 10.109375 0 Z M 10.109375 0 "/></g></g></g><g fill="#000000" fill-opacity="1"><g transform="translate(130.150082, 29.963434)"><g><path d="M 6.703125 -17.28125 C 7.734375 -17.28125 8.289062 -17.046875 8.375 -16.578125 L 9.90625 -9.6875 L 11.453125 -0.5 C 11.484375 -0.34375 11.5 -0.203125 11.5 -0.078125 C 11.5 0.046875 11.460938 0.148438 11.390625 0.234375 C 11.316406 0.316406 11.0625 0.359375 10.625 0.359375 C 9.289062 0.359375 8.582031 0.0703125 8.5 -0.5 L 7.703125 -5.125 L 4.5625 -5.125 L 3.859375 -0.46875 C 3.816406 -0.15625 3.757812 0.0507812 3.6875 0.15625 C 3.625 0.257812 3.53125 0.316406 3.40625 0.328125 C 3.289062 0.347656 3.097656 0.359375 2.828125 0.359375 L 2.203125 0.359375 C 1.679688 0.359375 1.351562 0.328125 1.21875 0.265625 C 0.882812 0.148438 0.695312 0.015625 0.65625 -0.140625 C 0.632812 -0.210938 0.625 -0.273438 0.625 -0.328125 C 0.625 -0.390625 0.78125 -1.378906 1.09375 -3.296875 C 1.414062 -5.210938 1.800781 -7.5 2.25 -10.15625 C 2.707031 -12.8125 3.007812 -14.550781 3.15625 -15.375 C 3.300781 -16.195312 3.378906 -16.660156 3.390625 -16.765625 C 3.453125 -17.109375 4.554688 -17.28125 6.703125 -17.28125 Z M 6.015625 -14.328125 L 4.984375 -7.84375 L 7.21875 -7.84375 Z M 6.015625 -14.328125 "/></g></g></g><g fill="#000000" fill-opacity="1"><g transform="translate(142.262876, 29.963434)"><g><path d="M 5.25 -17.25 C 7.550781 -17.25 9.140625 -16.867188 10.015625 -16.109375 C 10.898438 -15.359375 11.34375 -14.171875 11.34375 -12.546875 C 11.34375 -10.921875 11.019531 -9.695312 10.375 -8.875 C 11.320312 -8.09375 11.796875 -6.78125 11.796875 -4.9375 C 11.796875 -1.40625 9.765625 0.359375 5.703125 0.359375 C 5.222656 0.359375 3.660156 0.238281 1.015625 0 L 1.015625 -16.890625 C 2.566406 -17.128906 3.976562 -17.25 5.25 -17.25 Z M 7.96875 -2.9375 C 8.257812 -3.269531 8.40625 -3.945312 8.40625 -4.96875 C 8.40625 -5.988281 8.289062 -6.601562 8.0625 -6.8125 C 7.84375 -7.019531 7.265625 -7.125 6.328125 -7.125 C 5.390625 -7.125 4.796875 -7.109375 4.546875 -7.078125 C 4.296875 -7.046875 4.171875 -6.957031 4.171875 -6.8125 L 4.171875 -2.78125 C 4.171875 -2.613281 4.269531 -2.515625 4.46875 -2.484375 C 4.675781 -2.460938 5.238281 -2.453125 6.15625 -2.453125 C 7.070312 -2.453125 7.675781 -2.613281 7.96875 -2.9375 Z M 4.578125 -9.90625 C 5.878906 -9.90625 6.765625 -10.0625 7.234375 -10.375 C 7.710938 -10.695312 7.953125 -11.394531 7.953125 -12.46875 C 7.953125 -13.082031 7.820312 -13.585938 7.5625 -13.984375 C 7.300781 -14.378906 7.019531 -14.578125 6.71875 -14.578125 C 5.445312 -14.578125 4.675781 -14.492188 4.40625 -14.328125 C 4.3125 -14.273438 4.234375 -14.1875 4.171875 -14.0625 L 4.171875 -10.265625 C 4.171875 -10.085938 4.203125 -9.984375 4.265625 -9.953125 C 4.367188 -9.921875 4.472656 -9.90625 4.578125 -9.90625 Z M 4.578125 -9.90625 "/></g></g></g><g fill="#000000" fill-opacity="1"><g transform="translate(154.847606, 29.963434)"><g><path d="M 8.5 -10.21875 C 9.09375 -10.21875 9.390625 -9.953125 9.390625 -9.421875 C 9.390625 -8.679688 9.34375 -8.175781 9.25 -7.90625 C 9.164062 -7.632812 8.9375 -7.5 8.5625 -7.5 L 4.15625 -7.5 L 4.15625 -2.71875 L 9.34375 -2.71875 C 9.707031 -2.707031 9.957031 -2.632812 10.09375 -2.5 C 10.226562 -2.375 10.296875 -2.1875 10.296875 -1.9375 C 10.296875 -1.195312 10.226562 -0.6875 10.09375 -0.40625 C 9.957031 -0.132812 9.6875 0 9.28125 0 L 1.375 0 L 1.015625 -0.359375 L 1.015625 -16.890625 L 8.984375 -16.890625 C 9.628906 -16.878906 9.953125 -16.640625 9.953125 -16.171875 C 9.941406 -15.773438 9.921875 -15.457031 9.890625 -15.21875 C 9.859375 -14.988281 9.765625 -14.757812 9.609375 -14.53125 C 9.453125 -14.3125 9.222656 -14.203125 8.921875 -14.203125 L 3.90625 -14.203125 L 4.15625 -10.21875 Z M 8.5 -10.21875 "/></g></g></g><g fill="#000000" fill-opacity="1"><g transform="translate(165.701932, 29.963434)"><g><path d="M 3.859375 -0.46875 L 3.859375 -14.203125 L 1.0625 -14.203125 C 0.695312 -14.210938 0.460938 -14.3125 0.359375 -14.5 C 0.222656 -14.707031 0.15625 -15.078125 0.15625 -15.609375 C 0.15625 -16.460938 0.410156 -16.890625 0.921875 -16.890625 L 9.09375 -16.890625 C 9.96875 -16.890625 10.40625 -16.660156 10.40625 -16.203125 C 10.40625 -14.867188 10.046875 -14.203125 9.328125 -14.203125 L 6.8125 -14.21875 L 7.015625 -9.65625 L 7.03125 -0.515625 C 7.03125 -0.234375 7.023438 -0.046875 7.015625 0.046875 C 6.953125 0.253906 6.660156 0.359375 6.140625 0.359375 C 4.617188 0.359375 3.859375 0.0820312 3.859375 -0.46875 Z M 3.859375 -0.46875 "/></g></g></g><g fill="#000000" fill-opacity="1"><g transform="translate(176.264108, 29.963434)"><g><path d="M 7.8125 -16.484375 C 7.8125 -16.804688 7.882812 -17.015625 8.03125 -17.109375 C 8.175781 -17.203125 8.472656 -17.25 8.921875 -17.25 C 9.992188 -17.25 10.539062 -16.972656 10.5625 -16.421875 L 10.984375 -9.6875 L 10.984375 -0.46875 C 10.984375 -0.21875 10.976562 -0.046875 10.96875 0.046875 C 10.90625 0.253906 10.613281 0.359375 10.09375 0.359375 C 8.570312 0.359375 7.8125 0.0859375 7.8125 -0.453125 L 7.8125 -6.96875 L 4.140625 -6.96875 L 4.15625 -0.46875 C 4.15625 -0.21875 4.148438 -0.046875 4.140625 0.046875 C 4.078125 0.253906 3.785156 0.359375 3.265625 0.359375 C 1.765625 0.359375 1.015625 0.0703125 1.015625 -0.5 L 1.015625 -16.46875 C 1.015625 -16.800781 1.082031 -17.015625 1.21875 -17.109375 C 1.363281 -17.203125 1.660156 -17.25 2.109375 -17.25 C 3.191406 -17.25 3.738281 -16.988281 3.75 -16.46875 L 4.140625 -9.65625 L 7.8125 -9.65625 Z M 7.8125 -16.484375 "/></g></g></g><g fill="#000000" fill-opacity="1"><g transform="translate(3.350631, 60.956775)"><g><path d="M 1.015625 -16.421875 C 1.015625 -16.753906 1.09375 -16.972656 1.25 -17.078125 C 1.40625 -17.191406 1.707031 -17.25 2.15625 -17.25 C 3.238281 -17.25 3.785156 -16.984375 3.796875 -16.453125 L 4.140625 -9.703125 L 4.15625 -2.71875 L 8.515625 -2.71875 C 9.242188 -2.71875 9.609375 -2.445312 9.609375 -1.90625 C 9.609375 -0.9375 9.46875 -0.351562 9.1875 -0.15625 C 9.039062 -0.0507812 8.847656 0 8.609375 0 L 1.375 0 L 1.015625 -0.359375 Z M 1.015625 -16.421875 "/></g></g></g><g fill="#000000" fill-opacity="1"><g transform="translate(13.126263, 60.956775)"><g><path d="M 6.703125 -17.28125 C 7.734375 -17.28125 8.289062 -17.046875 8.375 -16.578125 L 9.90625 -9.6875 L 11.453125 -0.5 C 11.484375 -0.34375 11.5 -0.203125 11.5 -0.078125 C 11.5 0.046875 11.460938 0.148438 11.390625 0.234375 C 11.316406 0.316406 11.0625 0.359375 10.625 0.359375 C 9.289062 0.359375 8.582031 0.0703125 8.5 -0.5 L 7.703125 -5.125 L 4.5625 -5.125 L 3.859375 -0.46875 C 3.816406 -0.15625 3.757812 0.0507812 3.6875 0.15625 C 3.625 0.257812 3.53125 0.316406 3.40625 0.328125 C 3.289062 0.347656 3.097656 0.359375 2.828125 0.359375 L 2.203125 0.359375 C 1.679688 0.359375 1.351562 0.328125 1.21875 0.265625 C 0.882812 0.148438 0.695312 0.015625 0.65625 -0.140625 C 0.632812 -0.210938 0.625 -0.273438 0.625 -0.328125 C 0.625 -0.390625 0.78125 -1.378906 1.09375 -3.296875 C 1.414062 -5.210938 1.800781 -7.5 2.25 -10.15625 C 2.707031 -12.8125 3.007812 -14.550781 3.15625 -15.375 C 3.300781 -16.195312 3.378906 -16.660156 3.390625 -16.765625 C 3.453125 -17.109375 4.554688 -17.28125 6.703125 -17.28125 Z M 6.015625 -14.328125 L 4.984375 -7.84375 L 7.21875 -7.84375 Z M 6.015625 -14.328125 "/></g></g></g><g fill="#000000" fill-opacity="1"><g transform="translate(25.239057, 60.956775)"><g><path d="M 6.703125 0.359375 C 4.460938 0.359375 2.921875 -0.269531 2.078125 -1.53125 C 1.234375 -2.789062 0.8125 -5.054688 0.8125 -8.328125 C 0.8125 -10.710938 1 -12.539062 1.375 -13.8125 C 1.75 -15.09375 2.34375 -15.984375 3.15625 -16.484375 C 3.96875 -16.992188 5.125 -17.25 6.625 -17.25 C 8.125 -17.25 9.28125 -17.050781 10.09375 -16.65625 C 10.414062 -16.488281 10.578125 -16.257812 10.578125 -15.96875 C 10.578125 -15.882812 10.503906 -15.628906 10.359375 -15.203125 C 10.222656 -14.785156 10.09375 -14.503906 9.96875 -14.359375 C 9.84375 -14.210938 9.703125 -14.140625 9.546875 -14.140625 C 9.398438 -14.140625 8.984375 -14.195312 8.296875 -14.3125 C 7.617188 -14.4375 7.039062 -14.5 6.5625 -14.5 C 6.082031 -14.5 5.738281 -14.453125 5.53125 -14.359375 C 5.320312 -14.265625 5.148438 -14.09375 5.015625 -13.84375 C 4.878906 -13.601562 4.769531 -13.34375 4.6875 -13.0625 C 4.601562 -12.789062 4.539062 -12.390625 4.5 -11.859375 C 4.4375 -11.160156 4.40625 -9.769531 4.40625 -7.6875 C 4.40625 -5.613281 4.523438 -4.21875 4.765625 -3.5 C 5.015625 -2.78125 5.59375 -2.421875 6.5 -2.421875 L 8.328125 -2.53125 L 8.328125 -7.4375 C 8.347656 -7.738281 8.453125 -7.9375 8.640625 -8.03125 C 8.828125 -8.125 9.160156 -8.175781 9.640625 -8.1875 C 10.117188 -8.195312 10.476562 -8.132812 10.71875 -8 C 10.957031 -7.875 11.09375 -7.617188 11.125 -7.234375 L 11.5 -2.828125 L 11.5 0 C 9.601562 0.238281 8.003906 0.359375 6.703125 0.359375 Z M 6.703125 0.359375 "/></g></g></g><g fill="#000000" fill-opacity="1"><g transform="translate(37.531638, 60.956775)"><g><path d="M 8.25 -16.21875 C 8.25 -16.644531 8.335938 -16.921875 8.515625 -17.046875 C 8.691406 -17.179688 9.066406 -17.25 9.640625 -17.25 C 10.210938 -17.25 10.601562 -17.160156 10.8125 -16.984375 C 11.03125 -16.804688 11.148438 -16.375 11.171875 -15.6875 L 11.4375 -9.640625 C 11.4375 -9.410156 11.4375 -9.1875 11.4375 -8.96875 C 11.4375 -6.644531 11.28125 -4.800781 10.96875 -3.4375 C 10.664062 -2.070312 10.144531 -1.097656 9.40625 -0.515625 C 8.664062 0.0664062 7.601562 0.359375 6.21875 0.359375 C 4.21875 0.359375 2.832031 -0.269531 2.0625 -1.53125 C 1.300781 -2.789062 0.921875 -5.050781 0.921875 -8.3125 L 0.921875 -15.734375 C 0.921875 -16.367188 1.015625 -16.78125 1.203125 -16.96875 C 1.390625 -17.15625 1.773438 -17.25 2.359375 -17.25 C 2.941406 -17.25 3.335938 -17.148438 3.546875 -16.953125 C 3.753906 -16.753906 3.875 -16.269531 3.90625 -15.5 L 4.21875 -9.6875 C 4.21875 -5.894531 4.367188 -3.640625 4.671875 -2.921875 C 4.796875 -2.609375 4.96875 -2.453125 5.1875 -2.453125 C 5.71875 -2.453125 6.125 -2.460938 6.40625 -2.484375 C 6.6875 -2.503906 6.960938 -2.59375 7.234375 -2.75 C 7.503906 -2.90625 7.691406 -3.085938 7.796875 -3.296875 C 7.898438 -3.515625 8 -3.867188 8.09375 -4.359375 C 8.195312 -5.046875 8.25 -6.363281 8.25 -8.3125 Z M 8.25 -16.21875 "/></g></g></g><g fill="#000000" fill-opacity="1"><g transform="translate(49.891642, 60.956775)"><g><path d="M 1.015625 -0.546875 L 1.015625 -16.421875 C 1.015625 -16.972656 1.550781 -17.25 2.625 -17.25 C 2.851562 -17.25 3.03125 -17.242188 3.15625 -17.234375 C 3.28125 -17.222656 3.441406 -17.148438 3.640625 -17.015625 C 3.835938 -16.890625 4.007812 -16.707031 4.15625 -16.46875 L 8.171875 -7.03125 L 8.046875 -16.453125 C 8.046875 -16.984375 8.582031 -17.25 9.65625 -17.25 C 10.101562 -17.25 10.410156 -17.195312 10.578125 -17.09375 C 10.742188 -16.988281 10.835938 -16.773438 10.859375 -16.453125 L 11.21875 -9.6875 L 11.21875 -0.46875 C 11.21875 -0.21875 11.207031 -0.046875 11.1875 0.046875 C 11.125 0.253906 10.832031 0.359375 10.3125 0.359375 C 9.34375 0.359375 8.757812 0.0820312 8.5625 -0.46875 L 4.140625 -9.796875 L 4.15625 -0.5 C 4.15625 -0.226562 4.148438 -0.046875 4.140625 0.046875 C 4.078125 0.253906 3.785156 0.359375 3.265625 0.359375 C 1.765625 0.359375 1.015625 0.0546875 1.015625 -0.546875 Z M 1.015625 -0.546875 "/></g></g></g><g fill="#000000" fill-opacity="1"><g transform="translate(62.094329, 60.956775)"><g><path d="M 6.703125 -17.28125 C 7.734375 -17.28125 8.289062 -17.046875 8.375 -16.578125 L 9.90625 -9.6875 L 11.453125 -0.5 C 11.484375 -0.34375 11.5 -0.203125 11.5 -0.078125 C 11.5 0.046875 11.460938 0.148438 11.390625 0.234375 C 11.316406 0.316406 11.0625 0.359375 10.625 0.359375 C 9.289062 0.359375 8.582031 0.0703125 8.5 -0.5 L 7.703125 -5.125 L 4.5625 -5.125 L 3.859375 -0.46875 C 3.816406 -0.15625 3.757812 0.0507812 3.6875 0.15625 C 3.625 0.257812 3.53125 0.316406 3.40625 0.328125 C 3.289062 0.347656 3.097656 0.359375 2.828125 0.359375 L 2.203125 0.359375 C 1.679688 0.359375 1.351562 0.328125 1.21875 0.265625 C 0.882812 0.148438 0.695312 0.015625 0.65625 -0.140625 C 0.632812 -0.210938 0.625 -0.273438 0.625 -0.328125 C 0.625 -0.390625 0.78125 -1.378906 1.09375 -3.296875 C 1.414062 -5.210938 1.800781 -7.5 2.25 -10.15625 C 2.707031 -12.8125 3.007812 -14.550781 3.15625 -15.375 C 3.300781 -16.195312 3.378906 -16.660156 3.390625 -16.765625 C 3.453125 -17.109375 4.554688 -17.28125 6.703125 -17.28125 Z M 6.015625 -14.328125 L 4.984375 -7.84375 L 7.21875 -7.84375 Z M 6.015625 -14.328125 "/></g></g></g><g fill="#000000" fill-opacity="1"><g transform="translate(74.207123, 60.956775)"><g/></g></g><g fill="#000000" fill-opacity="1"><g transform="translate(80.184868, 60.956775)"><g><path d="M 10.890625 -17.25 C 11.898438 -17.25 12.40625 -17.035156 12.40625 -16.609375 C 12.40625 -16.523438 12.394531 -16.445312 12.375 -16.375 L 8.609375 -0.46875 C 8.535156 -0.125 8.4375 0.0976562 8.3125 0.203125 C 8.195312 0.304688 7.835938 0.359375 7.234375 0.359375 C 5.835938 0.359375 5.066406 0.0703125 4.921875 -0.5 L 0.5625 -16.421875 C 0.550781 -16.484375 0.546875 -16.546875 0.546875 -16.609375 C 0.546875 -17.035156 1.050781 -17.25 2.0625 -17.25 C 2.5625 -17.25 2.945312 -17.1875 3.21875 -17.0625 C 3.5 -16.9375 3.6875 -16.691406 3.78125 -16.328125 L 6.828125 -4.359375 L 9.53125 -16.453125 C 9.582031 -16.765625 9.707031 -16.972656 9.90625 -17.078125 C 10.101562 -17.191406 10.429688 -17.25 10.890625 -17.25 Z M 10.890625 -17.25 "/></g></g></g><g fill="#000000" fill-opacity="1"><g transform="translate(93.12916, 60.956775)"><g><path d="M 8.5 -10.21875 C 9.09375 -10.21875 9.390625 -9.953125 9.390625 -9.421875 C 9.390625 -8.679688 9.34375 -8.175781 9.25 -7.90625 C 9.164062 -7.632812 8.9375 -7.5 8.5625 -7.5 L 4.15625 -7.5 L 4.15625 -2.71875 L 9.34375 -2.71875 C 9.707031 -2.707031 9.957031 -2.632812 10.09375 -2.5 C 10.226562 -2.375 10.296875 -2.1875 10.296875 -1.9375 C 10.296875 -1.195312 10.226562 -0.6875 10.09375 -0.40625 C 9.957031 -0.132812 9.6875 0 9.28125 0 L 1.375 0 L 1.015625 -0.359375 L 1.015625 -16.890625 L 8.984375 -16.890625 C 9.628906 -16.878906 9.953125 -16.640625 9.953125 -16.171875 C 9.941406 -15.773438 9.921875 -15.457031 9.890625 -15.21875 C 9.859375 -14.988281 9.765625 -14.757812 9.609375 -14.53125 C 9.453125 -14.3125 9.222656 -14.203125 8.921875 -14.203125 L 3.90625 -14.203125 L 4.15625 -10.21875 Z M 8.5 -10.21875 "/></g></g></g><g fill="#000000" fill-opacity="1"><g transform="translate(103.983486, 60.956775)"><g><path d="M 1.015625 -16.421875 C 1.015625 -16.753906 1.09375 -16.972656 1.25 -17.078125 C 1.40625 -17.191406 1.707031 -17.25 2.15625 -17.25 C 3.238281 -17.25 3.785156 -16.984375 3.796875 -16.453125 L 4.140625 -9.703125 L 4.15625 -2.71875 L 8.515625 -2.71875 C 9.242188 -2.71875 9.609375 -2.445312 9.609375 -1.90625 C 9.609375 -0.9375 9.46875 -0.351562 9.1875 -0.15625 C 9.039062 -0.0507812 8.847656 0 8.609375 0 L 1.375 0 L 1.015625 -0.359375 Z M 1.015625 -16.421875 "/></g></g></g><g fill="#000000" fill-opacity="1"><g transform="translate(113.759118, 60.956775)"><g><path d="M 6.015625 -17.796875 L 4.984375 -18.265625 L 4.96875 -19.5 L 6.25 -22.28125 L 7.1875 -23.015625 L 9.609375 -21.65625 Z M 6.703125 -17.28125 C 7.734375 -17.28125 8.289062 -17.046875 8.375 -16.578125 L 9.90625 -9.6875 L 11.453125 -0.5 C 11.484375 -0.34375 11.5 -0.203125 11.5 -0.078125 C 11.5 0.046875 11.460938 0.148438 11.390625 0.234375 C 11.316406 0.316406 11.0625 0.359375 10.625 0.359375 C 9.289062 0.359375 8.582031 0.0703125 8.5 -0.5 L 7.703125 -5.125 L 4.5625 -5.125 L 3.859375 -0.46875 C 3.816406 -0.15625 3.757812 0.0507812 3.6875 0.15625 C 3.625 0.257812 3.53125 0.316406 3.40625 0.328125 C 3.289062 0.347656 3.097656 0.359375 2.828125 0.359375 L 2.203125 0.359375 C 1.679688 0.359375 1.351562 0.328125 1.21875 0.265625 C 0.882812 0.148438 0.695312 0.015625 0.65625 -0.140625 C 0.632812 -0.210938 0.625 -0.273438 0.625 -0.328125 C 0.625 -0.390625 0.78125 -1.378906 1.09375 -3.296875 C 1.414062 -5.210938 1.800781 -7.5 2.25 -10.15625 C 2.707031 -12.8125 3.007812 -14.550781 3.15625 -15.375 C 3.300781 -16.195312 3.378906 -16.660156 3.390625 -16.765625 C 3.453125 -17.109375 4.554688 -17.28125 6.703125 -17.28125 Z M 6.015625 -14.328125 L 4.984375 -7.84375 L 7.21875 -7.84375 Z M 6.015625 -14.328125 "/></g></g></g><g fill="#000000" fill-opacity="1"><g transform="translate(125.624715, 60.956775)"><g><path d="M 10.109375 0 L 1.34375 0 L 0.984375 -0.359375 L 0.984375 -2.734375 L 7.375 -14.203125 L 1.625 -14.203125 C 1.226562 -14.210938 0.972656 -14.300781 0.859375 -14.46875 C 0.734375 -14.675781 0.671875 -15.023438 0.671875 -15.515625 C 0.671875 -16.003906 0.722656 -16.351562 0.828125 -16.5625 C 0.929688 -16.78125 1.15625 -16.890625 1.5 -16.890625 L 10.53125 -16.890625 L 10.890625 -16.53125 L 10.890625 -14.5625 L 4.671875 -2.71875 L 10 -2.71875 C 10.488281 -2.707031 10.816406 -2.644531 10.984375 -2.53125 C 11.160156 -2.414062 11.25 -2.238281 11.25 -2 C 11.226562 -0.664062 10.847656 0 10.109375 0 Z M 10.109375 0 "/></g></g></g><g fill="#000000" fill-opacity="1"><g transform="translate(137.535265, 60.956775)"><g><path d="M 0.71875 -8.328125 C 0.71875 -10.710938 0.90625 -12.539062 1.28125 -13.8125 C 1.65625 -15.09375 2.25 -15.984375 3.0625 -16.484375 C 3.882812 -16.992188 5.066406 -17.25 6.609375 -17.25 C 8.148438 -17.25 9.328125 -16.992188 10.140625 -16.484375 C 10.960938 -15.984375 11.554688 -15.097656 11.921875 -13.828125 C 12.285156 -12.566406 12.46875 -10.734375 12.46875 -8.328125 C 12.46875 -5.054688 12.046875 -2.789062 11.203125 -1.53125 C 10.367188 -0.269531 8.835938 0.359375 6.609375 0.359375 C 4.378906 0.359375 2.835938 -0.269531 1.984375 -1.53125 C 1.140625 -2.789062 0.71875 -5.054688 0.71875 -8.328125 Z M 4.46875 -12.53125 C 4.382812 -11.96875 4.332031 -11.394531 4.3125 -10.8125 C 4.300781 -10.238281 4.296875 -9.257812 4.296875 -7.875 C 4.296875 -6.5 4.335938 -5.347656 4.421875 -4.421875 C 4.515625 -3.492188 4.632812 -2.882812 4.78125 -2.59375 C 4.9375 -2.300781 5.140625 -2.15625 5.390625 -2.15625 C 6.710938 -2.15625 7.582031 -2.289062 8 -2.5625 C 8.132812 -2.664062 8.269531 -2.835938 8.40625 -3.078125 C 8.550781 -3.316406 8.65625 -3.5625 8.71875 -3.8125 C 8.78125 -4.070312 8.832031 -4.445312 8.875 -4.9375 C 8.9375 -5.582031 8.96875 -6.738281 8.96875 -8.40625 C 8.96875 -10.082031 8.925781 -11.398438 8.84375 -12.359375 C 8.757812 -13.328125 8.640625 -13.988281 8.484375 -14.34375 C 8.328125 -14.695312 8.117188 -14.875 7.859375 -14.875 C 7.265625 -14.875 6.78125 -14.847656 6.40625 -14.796875 C 6.039062 -14.742188 5.71875 -14.613281 5.4375 -14.40625 C 5.15625 -14.207031 4.945312 -13.984375 4.8125 -13.734375 C 4.675781 -13.492188 4.5625 -13.09375 4.46875 -12.53125 Z M 11.546875 2.984375 C 11.535156 3.460938 11.421875 3.785156 11.203125 3.953125 C 10.984375 4.117188 10.535156 4.203125 9.859375 4.203125 C 9.191406 4.203125 8.066406 4.117188 6.484375 3.953125 C 4.898438 3.785156 3.691406 3.703125 2.859375 3.703125 L 2.5 2.609375 C 2.507812 2.078125 2.648438 1.71875 2.921875 1.53125 C 3.191406 1.351562 3.632812 1.265625 4.25 1.265625 C 4.875 1.265625 5.945312 1.335938 7.46875 1.484375 C 8.988281 1.628906 10.160156 1.703125 10.984375 1.703125 Z M 11.546875 2.984375 "/></g></g></g><g fill="#000000" fill-opacity="1"><g transform="translate(150.771706, 60.956775)"><g><path d="M 8.25 -16.21875 C 8.25 -16.644531 8.335938 -16.921875 8.515625 -17.046875 C 8.691406 -17.179688 9.066406 -17.25 9.640625 -17.25 C 10.210938 -17.25 10.601562 -17.160156 10.8125 -16.984375 C 11.03125 -16.804688 11.148438 -16.375 11.171875 -15.6875 L 11.4375 -9.640625 C 11.4375 -9.410156 11.4375 -9.1875 11.4375 -8.96875 C 11.4375 -6.644531 11.28125 -4.800781 10.96875 -3.4375 C 10.664062 -2.070312 10.144531 -1.097656 9.40625 -0.515625 C 8.664062 0.0664062 7.601562 0.359375 6.21875 0.359375 C 4.21875 0.359375 2.832031 -0.269531 2.0625 -1.53125 C 1.300781 -2.789062 0.921875 -5.050781 0.921875 -8.3125 L 0.921875 -15.734375 C 0.921875 -16.367188 1.015625 -16.78125 1.203125 -16.96875 C 1.390625 -17.15625 1.773438 -17.25 2.359375 -17.25 C 2.941406 -17.25 3.335938 -17.148438 3.546875 -16.953125 C 3.753906 -16.753906 3.875 -16.269531 3.90625 -15.5 L 4.21875 -9.6875 C 4.21875 -5.894531 4.367188 -3.640625 4.671875 -2.921875 C 4.796875 -2.609375 4.96875 -2.453125 5.1875 -2.453125 C 5.71875 -2.453125 6.125 -2.460938 6.40625 -2.484375 C 6.6875 -2.503906 6.960938 -2.59375 7.234375 -2.75 C 7.503906 -2.90625 7.691406 -3.085938 7.796875 -3.296875 C 7.898438 -3.515625 8 -3.867188 8.09375 -4.359375 C 8.195312 -5.046875 8.25 -6.363281 8.25 -8.3125 Z M 8.25 -16.21875 "/></g></g></g><g fill="#000000" fill-opacity="1"><g transform="translate(163.13171, 60.956775)"><g><path d="M 8.5 -10.21875 C 9.09375 -10.21875 9.390625 -9.953125 9.390625 -9.421875 C 9.390625 -8.679688 9.34375 -8.175781 9.25 -7.90625 C 9.164062 -7.632812 8.9375 -7.5 8.5625 -7.5 L 4.15625 -7.5 L 4.15625 -2.71875 L 9.34375 -2.71875 C 9.707031 -2.707031 9.957031 -2.632812 10.09375 -2.5 C 10.226562 -2.375 10.296875 -2.1875 10.296875 -1.9375 C 10.296875 -1.195312 10.226562 -0.6875 10.09375 -0.40625 C 9.957031 -0.132812 9.6875 0 9.28125 0 L 1.375 0 L 1.015625 -0.359375 L 1.015625 -16.890625 L 8.984375 -16.890625 C 9.628906 -16.878906 9.953125 -16.640625 9.953125 -16.171875 C 9.941406 -15.773438 9.921875 -15.457031 9.890625 -15.21875 C 9.859375 -14.988281 9.765625 -14.757812 9.609375 -14.53125 C 9.453125 -14.3125 9.222656 -14.203125 8.921875 -14.203125 L 3.90625 -14.203125 L 4.15625 -10.21875 Z M 8.5 -10.21875 "/></g></g></g><g fill="#000000" fill-opacity="1"><g transform="translate(173.986036, 60.956775)"><g><path d="M 10.109375 0 L 1.34375 0 L 0.984375 -0.359375 L 0.984375 -2.734375 L 7.375 -14.203125 L 1.625 -14.203125 C 1.226562 -14.210938 0.972656 -14.300781 0.859375 -14.46875 C 0.734375 -14.675781 0.671875 -15.023438 0.671875 -15.515625 C 0.671875 -16.003906 0.722656 -16.351562 0.828125 -16.5625 C 0.929688 -16.78125 1.15625 -16.890625 1.5 -16.890625 L 10.53125 -16.890625 L 10.890625 -16.53125 L 10.890625 -14.5625 L 4.671875 -2.71875 L 10 -2.71875 C 10.488281 -2.707031 10.816406 -2.644531 10.984375 -2.53125 C 11.160156 -2.414062 11.25 -2.238281 11.25 -2 C 11.226562 -0.664062 10.847656 0 10.109375 0 Z M 10.109375 0 "/></g></g></g><g fill="#000000" fill-opacity="1"><g transform="translate(185.896586, 60.956775)"><g><path d="M 2.140625 -0.90625 L 0.703125 -1.78125 L 5.390625 -8.53125 L 1.0625 -15.65625 L 2.5 -16.53125 L 3.703125 -16.25 L 8.25 -9.640625 L 8.703125 -8.53125 L 8.25 -7.4375 L 3.34375 -1.1875 Z M 2.140625 -0.90625 "/></g></g></g></svg>